
<svg id="Layer_1" data-name="Layer 1" xmlns="http://www.w3.org/2000/svg" viewBox="0 0 1080 1080"><title>analytics</title><path d="M431.49,581.27c1.49,0,2.68,0,3.87,0a22.66,22.66,0,0,1,17.34,8.82c6.08,7.68,7.22,16.31,3.19,25.16-4.17,9.17-11.7,13.85-21.81,14-2.13,0-2.85.53-2.82,2.78.14,9,.12,18,0,27,0,2,.62,2.52,2.57,2.51q107.42-.06,214.83,0c1.78,0,2.51-.35,2.49-2.36-.11-9.16,0-18.34-.06-27.51,0-.69-.09-1.39-.13-2-.29-.16-.43-.29-.57-.3-.71-.05-1.43-.09-2.14-.11-8.6-.2-15.45-3.79-20.07-11-5-7.81-5.37-16.15-1-24.32,4.43-8.36,11.7-12.62,21.19-12.75,2.13,0,2.86-.51,2.82-2.77-.13-9-.11-18,0-27,0-2-.61-2.52-2.56-2.52q-107.42.07-214.83,0c-1.78,0-2.51.34-2.49,2.35.11,9.17.05,18.34.05,27.51C431.33,579.5,431.42,580.2,431.49,581.27Z" style="fill:#fff;stroke:#000;stroke-miterlimit:10;stroke-width:0.5px"/><path d="M431.49,581.27c-.07-1.07-.16-1.77-.17-2.46,0-9.17.06-18.34-.05-27.51,0-2,.71-2.35,2.49-2.35q107.41,0,214.83,0c1.95,0,2.59.49,2.56,2.52-.1,9-.12,18,0,27,0,2.26-.69,2.74-2.82,2.77-9.49.13-16.76,4.39-21.19,12.75-4.33,8.17-4,16.51,1,24.32,4.62,7.23,11.47,10.82,20.07,11,.71,0,1.43.06,2.14.11.14,0,.28.14.57.3,0,.6.13,1.3.13,2,0,9.17-.05,18.35.06,27.51,0,2-.71,2.36-2.49,2.36q-107.42-.06-214.83,0c-1.95,0-2.59-.48-2.57-2.51.11-9,.13-18,0-27,0-2.25.69-2.74,2.82-2.78,10.11-.19,17.64-4.87,21.81-14,4-8.85,2.89-17.48-3.19-25.16a22.66,22.66,0,0,0-17.34-8.82C434.17,581.22,433,581.27,431.49,581.27Zm5.26-26.78c0,7,0,13.89.08,20.72,0,.47,1.08,1.21,1.74,1.32,14.44,2.42,24.88,14.39,24.94,28.7.06,14.11-10.26,26.16-24.67,28.61-1.81.3-2.18.95-2.13,2.57.1,3.51,0,7,0,10.53V656h150v-13.1h5.38v13h53.59c0-7,0-13.74,0-20.5,0-1.63-1.13-1.4-2.11-1.57-14.39-2.54-24.72-14.55-24.68-28.66a29.14,29.14,0,0,1,24.94-28.62c1.64-.25,1.86-1,1.85-2.35,0-5.9,0-11.8,0-17.7,0-.68-.11-1.36-.17-2H592v13h-5.39V554.49Z" style="fill:none;stroke:#000;stroke-miterlimit:10;stroke-width:2px"/><path d="M436.75,554.49H586.63V567.6H592v-13h53.49c.06.61.16,1.29.17,2,0,5.9,0,11.8,0,17.7,0,1.38-.21,2.1-1.85,2.35a29.14,29.14,0,0,0-24.94,28.62c0,14.11,10.29,26.12,24.68,28.66,1,.17,2.12-.06,2.11,1.57-.05,6.76,0,13.53,0,20.5H592.09v-13h-5.38V656h-150v-9.09c0-3.51.07-7,0-10.53,0-1.62.32-2.27,2.13-2.57,14.41-2.45,24.73-14.5,24.67-28.61-.06-14.31-10.5-26.28-24.94-28.7-.66-.11-1.73-.85-1.74-1.32C436.72,568.38,436.75,561.54,436.75,554.49Zm155.16,45.34V578.68h-5v21.15Zm0,32.15v-21.2h-5V632Z" style="fill:#2962ff"/><path d="M591.91,599.83h-5V578.68h5Z" style="fill:#fff;stroke:#000;stroke-miterlimit:10;stroke-width:0.75px"/><path d="M591.93,632h-5v-21.2h5Z" style="fill:#fff;stroke:#000;stroke-miterlimit:10;stroke-width:0.75px"/><line x1="334.8" y1="681.66" x2="732.08" y2="681.66" style="fill:#2962ff;stroke:#2962ff;stroke-linecap:round;stroke-miterlimit:10;stroke-width:14px"/><path d="M467,513.55c-2.18,11.92,2,20.81,11.5,24.89A20.11,20.11,0,0,0,502.43,532c6.44-8.54,5.34-17.9-3.41-28.26l42-60.13c11.82,4.29,21.83,1.08,27-8.45A20.16,20.16,0,0,0,536.36,411c-7.94,7.62-8.24,17.94-.82,28.45a.88.88,0,0,1-.07.29q-20.82,29.78-41.7,59.52a2.63,2.63,0,0,1-2.14,1c-8.53-1.86-15.6.59-21.48,7.29l-32.82-19.17c3.52-12.28.71-21.2-8.17-26.39a20.2,20.2,0,0,0-24.58,3.33c-7.32,7.47-7.45,16.69-.33,28.19-.52.78-1,1.63-1.61,2.43q-19.31,27.56-38.58,55.12c-1.62,2.34-3.05,4-6.17,2.71a8.6,8.6,0,0,0-3.56-.28,20.32,20.32,0,0,0-19.26,17.15c-1.55,8.91,3.81,18.29,12.44,21.76a20.2,20.2,0,0,0,22.22-32.58l-2-2.21,41.48-59.33c4.82.37,9.05,1.44,13,.81s7.66-2.95,12.05-4.77Z" style="fill:#fff"/><path d="M467,513.55l-32.76-19.18c-4.39,1.82-8.08,4.14-12.05,4.77s-8.19-.44-13-.81l-41.48,59.33,2,2.21a20.2,20.2,0,0,1-22.22,32.58c-8.63-3.47-14-12.85-12.44-21.76a20.32,20.32,0,0,1,19.26-17.15,8.6,8.6,0,0,1,3.56.28c3.12,1.27,4.55-.37,6.17-2.71q19.2-27.61,38.58-55.12c.57-.8,1.09-1.65,1.61-2.43-7.12-11.5-7-20.72.33-28.19A20.2,20.2,0,0,1,429.16,462c8.88,5.19,11.69,14.11,8.17,26.39l32.82,19.17c5.88-6.7,13-9.15,21.48-7.29a2.63,2.63,0,0,0,2.14-1q20.91-29.71,41.7-59.52a.88.88,0,0,0,.07-.29c-7.42-10.51-7.12-20.83.82-28.45a20.16,20.16,0,0,1,31.69,24.12c-5.16,9.53-15.17,12.74-27,8.45l-42,60.13c8.75,10.36,9.85,19.72,3.41,28.26a20.11,20.11,0,0,1-23.94,6.44C469,534.36,464.81,525.47,467,513.55ZM354.84,587.13a13.44,13.44,0,1,0,.4-26.88,13.44,13.44,0,1,0-.4,26.88Zm195.55-175a13.48,13.48,0,0,0-.19,26.95,13.48,13.48,0,1,0,.19-26.95Zm-118,67.35a13.4,13.4,0,1,0-13.58,13.37A13.2,13.2,0,0,0,432.4,479.49Zm54,27a13.22,13.22,0,0,0-13.45,13.2,13.4,13.4,0,1,0,26.79.11A13.22,13.22,0,0,0,486.39,506.45Z" style="fill:#2962ff"/><path d="M354.84,587.13a13.44,13.44,0,1,1,13.66-13.36A13.43,13.43,0,0,1,354.84,587.13Z" style="fill:#fff"/><path d="M550.39,412.14a13.48,13.48,0,1,1-13.55,13.22A13.52,13.52,0,0,1,550.39,412.14Z" style="fill:#fff"/><path d="M432.4,479.49a13.4,13.4,0,1,1-13.21-13.42A13.23,13.23,0,0,1,432.4,479.49Z" style="fill:#fff"/><path d="M486.39,506.45a13.22,13.22,0,0,1,13.34,13.31,13.4,13.4,0,1,1-26.79-.11A13.22,13.22,0,0,1,486.39,506.45Z" style="fill:#fff"/></svg>