<svg xmlns="http://www.w3.org/2000/svg" width="445.147" height="420.801" viewBox="0 0 445.147 420.801">
  <g id="food_and_delivery" transform="translate(0.001 -14)">
    <g id="Group_2" data-name="Group 2" transform="translate(328.931 200.995)">
      <path id="Path_37" data-name="Path 37" d="M378.33,229.078h109.7v38.107a17.151,17.151,0,0,1-17.1,17.117H431.468l-23.539,11.89-29.6-11.89Z" transform="translate(-378.33 -229.078)" fill="#3499ff" fill-rule="evenodd"/>
    </g>
    <g id="Group_3" data-name="Group 3" transform="translate(198.418 256.223)">
      <path id="Path_38" data-name="Path 38" d="M358.73,292.6h53.135v24.443A10.686,10.686,0,0,1,401.218,327.7h-173c0-15.367,0-23.185,11.756-23.185l23.413-.024c14.738-.024,24.4-3.8,29.8-11.888Z" transform="translate(-228.217 -292.6)" fill="#3499ff" fill-rule="evenodd"/>
    </g>
    <g id="Group_4" data-name="Group 4" transform="translate(126.893 291.317)">
      <path id="Path_39" data-name="Path 39" d="M238.342,332.965H390.477c8.922,15.539,16.09,34.21,9.907,69.924C390.033,367.668,284.9,381.726,274.1,422.375h-116c-4.387-9.94-8.528-19.757-12.15-29.672h32.7C244.8,367.745,223.53,378.867,238.342,332.965Z" transform="translate(-145.95 -332.965)" fill="#3499ff" fill-rule="evenodd"/>
    </g>
    <g id="Group_5" data-name="Group 5" transform="translate(205.972 105.725)">
      <path id="Path_40" data-name="Path 40" d="M240.828,209.616a248.236,248.236,0,0,0,8.8,33.717l33.442,13.1,37.289-13.1c-1.306-70.566-27.676-104.407-50.1-115.357a54.435,54.435,0,0,0-16.364-8.475S243,136.927,242.43,136.927c-4.19,9.965-5.767,22.964-5.5,37Z" transform="translate(-236.905 -119.5)" fill="#fff" fill-rule="evenodd"/>
    </g>
    <g id="Group_6" data-name="Group 6" transform="translate(182.366 229.557)">
      <path id="Path_41" data-name="Path 41" d="M316.813,261.929H246.082c-16.291,1.777-36.327,14.182-36.327,52.61v40.278h36.919V323.693c0-15.367,0-23.185,11.756-23.185l23.413-.024c14.738-.024,24.4-3.8,29.8-11.888C315.8,282.352,317.4,273.546,316.813,261.929Z" transform="translate(-209.755 -261.929)" fill="#00c7ff" fill-rule="evenodd"/>
    </g>
    <g id="Group_7" data-name="Group 7" transform="translate(228.231 114.199)">
      <path id="Path_42" data-name="Path 42" d="M323.7,244.6c-1.306-70.566-27.676-104.407-50.1-115.357a45.277,45.277,0,0,1-11.09,5.7c19.863,15.021,39.778,48.59,40.911,109.661Z" transform="translate(-262.507 -129.247)" fill="#fff" fill-rule="evenodd"/>
    </g>
    <g id="Group_8" data-name="Group 8" transform="translate(248.414 229.557)">
      <path id="Path_43" data-name="Path 43" d="M326.732,261.929H306.449c.591,11.617-1.01,20.423-5.176,26.663a30.466,30.466,0,0,1-15.552,11.888h6.037c14.738-.024,24.4-3.8,29.8-11.888C325.721,282.352,327.323,273.546,326.732,261.929Z" transform="translate(-285.721 -261.929)" fill="#00c7ff" fill-rule="evenodd"/>
    </g>
    <g id="Group_9" data-name="Group 9" transform="translate(328.931 145.696)">
      <path id="Path_44" data-name="Path 44" d="M395.433,165.474h75.488a17.151,17.151,0,0,1,17.1,17.117v28.316H378.33V182.591a17.151,17.151,0,0,1,17.1-17.117Z" transform="translate(-378.33 -165.474)" fill="#3499ff" fill-rule="evenodd"/>
    </g>
    <g id="Group_10" data-name="Group 10" transform="translate(328.931 182.594)">
      <path id="Path_45" data-name="Path 45" d="M378.33,207.914h109.7v26.91H378.33Z" transform="translate(-378.33 -207.914)" fill="#fff" fill-rule="evenodd"/>
    </g>
    <g id="Group_11" data-name="Group 11" transform="translate(398.628 145.696)">
      <path id="Path_46" data-name="Path 46" d="M475.6,202.373h22.9V182.591a17.155,17.155,0,0,0-17.1-17.117h-22.9a17.151,17.151,0,0,1,17.1,17.117Z" transform="translate(-458.494 -165.474)" fill="#3499ff" fill-rule="evenodd"/>
    </g>
    <g id="Group_12" data-name="Group 12" transform="translate(415.731 182.594)">
      <path id="Path_47" data-name="Path 47" d="M478.166,234.824h22.9v-26.91h-22.9Z" transform="translate(-478.166 -207.914)" fill="#fff" fill-rule="evenodd"/>
    </g>
    <g id="Group_13" data-name="Group 13" transform="translate(398.628 209.504)">
      <path id="Path_48" data-name="Path 48" d="M475.6,238.865v29.6a17.151,17.151,0,0,1-17.1,17.117h22.9a17.1,17.1,0,0,0,17.1-17.117v-29.6Z" transform="translate(-458.494 -238.865)" fill="#3499ff" fill-rule="evenodd"/>
    </g>
    <g id="Group_14" data-name="Group 14" transform="translate(255.044 315.193)">
      <path id="Path_49" data-name="Path 49" d="M293.347,425.962c0-36.479,28.909-65.535,64.571-65.535a64.566,64.566,0,0,1,61.712,46.049,66.166,66.166,0,0,1,2.834,17.417c.074,2.368-1.553,2.073-3.77,2.073Q356.032,425.962,293.347,425.962Z" transform="translate(-293.347 -360.427)" fill="#3499ff" fill-rule="evenodd"/>
    </g>
    <g id="Group_15" data-name="Group 15" transform="translate(271.286 380.726)">
      <path id="Path_50" data-name="Path 50" d="M312.028,435.8h98.286c-1.4,26.489-22.871,47.555-49.143,47.555S313.432,462.289,312.028,435.8Z" transform="translate(-312.028 -435.8)" fill="#fff" fill-rule="evenodd"/>
    </g>
    <g id="Group_16" data-name="Group 16" transform="translate(20.589 370.246)">
      <path id="Path_51" data-name="Path 51" d="M24.8,423.747l84.558,19.46A43.384,43.384,0,1,1,24.8,423.747Z" transform="translate(-23.68 -423.747)" fill="#fff" fill-rule="evenodd"/>
    </g>
    <g id="Group_17" data-name="Group 17" transform="translate(6.52 320.954)">
      <path id="Path_52" data-name="Path 52" d="M16.349,392.642a59.022,59.022,0,0,1,54.393-25.307c38.25,8.09,50.7,30.955,53.184,59.466a59.041,59.041,0,0,1-1.306,11.667c-.249,1.085-.961.642-2.144.371L107.241,435.8,22.683,416.346l-6.334-1.456L7.5,412.843a58.538,58.538,0,0,1,8.846-20.2Z" transform="translate(-7.5 -367.053)" fill="#3499ff" fill-rule="evenodd"/>
    </g>
    <g id="Group_18" data-name="Group 18" transform="translate(69.688 196.059)">
      <path id="Path_53" data-name="Path 53" d="M80.154,348.479l34.158-118.2L129.69,223.4l17.2,6.884c-22.6,62.649-16.291,106.38-1.036,148.114,3.649,9.915,7.788,19.732,12.15,29.672H133.438Z" transform="translate(-80.154 -223.4)" fill="#3499ff" fill-rule="evenodd"/>
    </g>
    <g id="Group_19" data-name="Group 19" transform="translate(172.852 61.885)">
      <path id="Path_54" data-name="Path 54" d="M201.424,77.61,241.5,69.076c4.064.371,15.7,10.137,15.7,16.256l-8.528,43.361a39.147,39.147,0,0,1-11.214,1.653,38.747,38.747,0,0,1-36.031-52.733Z" transform="translate(-198.811 -69.076)" fill="#fff" fill-rule="evenodd"/>
    </g>
    <g id="Group_20" data-name="Group 20" transform="translate(162.526 20.521)">
      <path id="Path_55" data-name="Path 55" d="M186.935,71.4c0-27.576,21.836-49.9,48.8-49.9s48.8,22.322,48.8,49.9c0,18.2-7.394,34.383-20.8,43.78a46.543,46.543,0,0,1-16.611,7.3V79.118c0-6.117-3.106-7.35-7.172-7.721H186.935Z" transform="translate(-186.935 -21.501)" fill="#00c7ff" fill-rule="evenodd"/>
    </g>
    <g id="Group_21" data-name="Group 21" transform="translate(185.792 20.52)">
      <path id="Path_56" data-name="Path 56" d="M213.694,28.876A47.623,47.623,0,0,1,239.226,21.5c26.962,0,48.8,22.322,48.8,49.9,0,18.2-7.394,34.383-20.8,43.78a45.27,45.27,0,0,1-11.312,5.772c9.907-10.035,15.28-24.443,15.28-40.327,0-28.808-22.846-52.168-51.016-52.168a47.107,47.107,0,0,0-6.482.42Z" transform="translate(-213.694 -21.5)" fill="#00c7ff" fill-rule="evenodd"/>
    </g>
    <g id="Group_22" data-name="Group 22" transform="translate(159.538 322.442)">
      <path id="Path_57" data-name="Path 57" d="M206.326,368.766h36.919v23.259c0,4.983-2.711,5.352-6.7,5.352H183.553c-1.06-23.333,13.062-28.613,22.772-28.613Z" transform="translate(-183.497 -368.764)" fill="#fff" fill-rule="evenodd"/>
    </g>
    <g id="Group_23" data-name="Group 23" transform="translate(104.261 202.94)">
      <path id="Path_58" data-name="Path 58" d="M151.05,379.429c-15.255-41.733-21.564-85.464,1.036-148.114H134.711c-22.6,62.653-16.315,106.383-1.036,148.114,3.623,9.915,7.763,19.732,12.15,29.672H163.2C158.838,399.16,154.7,389.343,151.05,379.429Z" transform="translate(-119.919 -231.315)" fill="#3499ff" fill-rule="evenodd"/>
    </g>
    <g id="Group_24" data-name="Group 24" transform="translate(53.57 320.945)">
      <path id="Path_59" data-name="Path 59" d="M130.991,426.8,77.807,367.335a58.115,58.115,0,0,0-16.192.642l51.114,57.149a58.843,58.843,0,0,1-1.01,10.088l2.588.592,13.234,3.034c1.184.271,1.9.716,2.144-.371a58.832,58.832,0,0,0,1.307-11.666Z" transform="translate(-61.615 -367.043)" fill="#3499ff" fill-rule="evenodd"/>
    </g>
    <g id="Group_25" data-name="Group 25" transform="translate(219.284 291.317)">
      <path id="Path_60" data-name="Path 60" d="M404.351,332.965H252.217v13.393h125c10.178,0,15.012,4.391,18.977,13.294,3.425,7.721,3.5,10.236,5.053,19.56a65.378,65.378,0,0,1,13.013,23.678C420.445,367.175,413.274,348.5,404.351,332.965Z" transform="translate(-252.217 -332.965)" fill="#3499ff" fill-rule="evenodd"/>
    </g>
    <g id="Group_26" data-name="Group 26" transform="translate(305.432 315.193)">
      <path id="Path_61" data-name="Path 61" d="M414.183,382.8a64.042,64.042,0,0,0-48.7-22.371,65.344,65.344,0,0,0-14.181,1.556c29.116,6.584,49.473,32.284,50.361,61.907.05,1.627-.69,2-1.873,2.073h26.469c2.218,0,3.845.3,3.77-2.073a66.134,66.134,0,0,0-2.834-17.417c-.05-.173-.1-.321-.148-.469v-.024A65.427,65.427,0,0,0,414.183,382.8Z" transform="translate(-351.302 -360.427)" fill="#3499ff" fill-rule="evenodd"/>
    </g>
    <g id="Group_27" data-name="Group 27" transform="translate(20.583 370.249)">
      <path id="Path_62" data-name="Path 62" d="M106.765,442.618,24.8,423.75a43.113,43.113,0,0,0-1.084,11.568L88.775,450.29l2.563.592a43.127,43.127,0,0,1-16.71,25.352,43.353,43.353,0,0,0,34.725-33.027Z" transform="translate(-23.674 -423.75)" fill="#fff" fill-rule="evenodd"/>
    </g>
    <g id="Group_28" data-name="Group 28" transform="translate(271.285 380.725)">
      <path id="Path_63" data-name="Path 63" d="M394.662,435.8H312.027a51.015,51.015,0,0,0,3.031,14.823h73.22a50.81,50.81,0,0,1-12.051,30.338A50.183,50.183,0,0,0,410.315,435.8Z" transform="translate(-312.027 -435.799)" fill="#fff" fill-rule="evenodd"/>
    </g>
    <g id="Group_29" data-name="Group 29" transform="translate(338.025 256.223)">
      <path id="Path_64" data-name="Path 64" d="M432.831,317.04V292.6H399.437v24.443A10.686,10.686,0,0,1,388.79,327.7h33.394A10.686,10.686,0,0,0,432.831,317.04Z" transform="translate(-388.79 -292.6)" fill="#3499ff" fill-rule="evenodd"/>
    </g>
    <g id="Group_30" data-name="Group 30" transform="translate(173.05 70.418)">
      <path id="Path_65" data-name="Path 65" d="M199.039,88.782h32.926c4.064.371,7.172,1.627,7.172,7.745v35.049a39.547,39.547,0,0,0,9.562-1.6V86.612c0-6.117-3.106-7.35-7.172-7.721H201.454a38.731,38.731,0,0,0-2.415,9.891Z" transform="translate(-199.039 -78.891)" fill="#fff" fill-rule="evenodd"/>
    </g>
    <g id="Group_31" data-name="Group 31" transform="translate(87.408 164.099)">
      <path id="Path_66" data-name="Path 66" d="M109.851,188.266l46.113,15.243c2.268,2.022-.3,22.642-1.825,21.978h-53.6V191.546c0-6.684,3.475-5.2,9.316-3.28Z" transform="translate(-100.535 -186.641)" fill="#3499ff" fill-rule="evenodd"/>
    </g>
    <g id="Group_32" data-name="Group 32" transform="translate(131.703 179.238)">
      <path id="Path_67" data-name="Path 67" d="M184.1,227.759H160.791c-12.524,0-12.889-20.768,1.825-21.978l21.491-1.727,5.767,12.209Z" transform="translate(-151.482 -204.054)" fill="#fff" fill-rule="evenodd"/>
    </g>
    <g id="Group_33" data-name="Group 33" transform="translate(164.322 148.424)">
      <path id="Path_68" data-name="Path 68" d="M230.678,180.337l7.713-6.635c19.324-16.649,43.745,11.445,17.914,28.216l-21.738,14.108-10.943,7.1H189v-23.7l21.515-1.751Z" transform="translate(-189 -168.611)" fill="#00c7ff" fill-rule="evenodd"/>
    </g>
    <g id="Group_34" data-name="Group 34" transform="translate(131.696 191.252)">
      <path id="Path_69" data-name="Path 69" d="M184.1,229.563V218.069H153.666a9.6,9.6,0,0,1-2.094-.2c-.715,5.723,2.514,11.694,9.218,11.694H184.1Z" transform="translate(-151.474 -217.872)" fill="#fff" fill-rule="evenodd"/>
    </g>
    <g id="Group_35" data-name="Group 35" transform="translate(164.322 151.27)">
      <path id="Path_70" data-name="Path 70" d="M256.309,202.346c15.625-10.162,12.865-24.443,3.968-30.461.715,6.166-2.218,13.245-11.09,18.993l-16.932,10.976-4.781,3.133-10.939,7.078H189v11.493h34.627l10.943-7.1Z" transform="translate(-189 -171.885)" fill="#00c7ff" fill-rule="evenodd"/>
    </g>
    <g id="Group_36" data-name="Group 36" transform="translate(117.244 174.849)">
      <path id="Path_71" data-name="Path 71" d="M160.443,205.123l-18.558-6.117c-6.21,6.66-9.218,19.634-5.225,28.093h21.958c-6.7,0-9.933-5.971-9.218-11.694a11.565,11.565,0,0,1,11.041-10.284Z" transform="translate(-134.852 -199.006)" fill="#3499ff" fill-rule="evenodd"/>
    </g>
    <path id="Path_72" data-name="Path 72" d="M421.523,139.175H346.034a23.658,23.658,0,0,0-23.625,23.637V249.7H294.173a64.846,64.846,0,0,0,1.769-20.263h0c-.613-33.092-6.618-60.977-17.847-82.889-8.72-17.012-18.9-27.212-27.63-33.308,10.249-10.538,16.173-25.53,16.173-42.821C266.643,39.308,241.825,14,211.324,14S156,39.308,156,70.417a6.521,6.521,0,0,0,6.521,6.521h4.427a45.915,45.915,0,0,0-.625,7.514A45.276,45.276,0,0,0,202.7,128.805a109.859,109.859,0,0,0-3.245,28.365L183.2,171.158l-39.572,3.2-45.648-15.09c-4.183-1.391-8.926-2.963-13.039,0-4.054,2.926-4.054,8.045-4.054,9.729v33.938a6.521,6.521,0,0,0,6.521,6.521h7.763L83.26,250.6a6.521,6.521,0,1,0,12.529,3.625l12.956-44.77h18.538C104.226,279.769,117.382,326.7,137.6,374.2H125.885L77.063,319.617l10.323-35.663a6.521,6.521,0,0,0-12.524-3.625l-9.878,34.113a65.589,65.589,0,0,0-64.82,50.84A6.521,6.521,0,0,0,5.059,373.1l9.257,2.13a49.891,49.891,0,0,0,96.42,22.188l7.3,1.68c2.176.5,4.241.758,6.3-.352a7.486,7.486,0,0,0,3.672-5,64.864,64.864,0,0,0,1.051-6.493H265.442C269.8,414.361,292.874,434.8,320.43,434.8s50.624-20.439,54.987-47.555h4.976l.576.006c.2,0,.415,0,.636,0a8.931,8.931,0,0,0,6.77-2.457,8.358,8.358,0,0,0,2.306-6.341,73.919,73.919,0,0,0-2.671-17.666c5.194-31.533.2-50.737-7.216-65.769a17.168,17.168,0,0,0,7.789-14.369V262.74h32.937A23.658,23.658,0,0,0,445.146,239.1v-76.29a23.654,23.654,0,0,0-23.622-23.637ZM83.535,411.248a36.575,36.575,0,0,1-27.812,4.687h0a36.948,36.948,0,0,1-28.564-37.743L97.89,394.471a36.658,36.658,0,0,1-14.354,16.777Zm32.628-25.966L14.73,361.941a52.511,52.511,0,0,1,51.919-34.4L116.338,383.1q-.066,1.1-.174,2.187Zm98.494-113.63c-1.893,4.992-1.893,11.147-1.893,19.666v24.607H188.887V282.169c0-38.166,20.83-44.968,30.178-46.09h63.928c-.257,8.662-2.212,14.819-5.923,18.727-4.324,4.554-11.724,6.773-22.624,6.783l-23.406.024c-8.347,0-13.859,3.378-16.384,10.04Zm-1.893,57.31v15.57h-46.5c.521-4.829,2.024-8.566,4.5-11.151,3.674-3.845,8.849-4.418,11.607-4.418ZM282.7,223.033H223.4a243.483,243.483,0,0,1-6.25-24.135l18.03-11.7c9.842-6.391,14.962-15.422,14.047-24.778a23.057,23.057,0,0,0-14.365-18.87c-7.229-2.9-15.012-1.986-21.885,2.411a76.994,76.994,0,0,1,3.152-16.531,45.963,45.963,0,0,0,8.251-1.627,54.019,54.019,0,0,0,15.222-6.032c12.557,7.5,40.178,31.841,43.1,101.267ZM169.524,63.9c3.075-20.835,20.651-36.855,41.8-36.855,23.311,0,42.276,19.459,42.276,43.376,0,19.453-9.328,35.131-24.369,42.031V78.139c0-5.941-2.273-13.229-13.1-14.215q-.294-.027-.591-.027Zm9.85,20.556a32.472,32.472,0,0,1,.869-7.514h34.98c.4.043.7.09.906.133a7.757,7.757,0,0,1,.064,1.067V116.29a32.253,32.253,0,0,1-4.679.345h-.043a32.187,32.187,0,0,1-32.093-32.18ZM170.92,185.237l15.445-1.249a6.524,6.524,0,0,0,3.732-1.555l27.874-23.975,0,0a12.954,12.954,0,0,1,8.377-3.513,10.035,10.035,0,0,1,9.907,8.749c.43,4.406-2.472,8.874-8.169,12.571l-19.4,12.591-11.663,7.57H170.922V185.237Zm-27.558,2.229,14.514-1.174v10.13H141.011c-2.186,0-2.72-1.817-2.783-3.342a5.177,5.177,0,0,1,5.135-5.615Zm-15.433-4.5a18.836,18.836,0,0,0-2.405,13.4c0,.018-.011.036-.007.054H93.929V171.664l34.026,11.248c-.011.017-.016.034-.025.051Zm13.118,26.5h57.905a6.52,6.52,0,0,0,3.55-1.051l2.951-1.916c1.42,6.276,3.037,12.383,4.8,18.15-13.3,3.925-34.407,16.611-34.407,57.519v34.413a27.213,27.213,0,0,0-14.514,7.8c-4.772,4.994-7.5,11.761-8.152,20.161H140.024c-13.255-38.2-18.3-78.852,1.023-135.071ZM151.8,374.183c-2.41-5.543-4.733-11.065-6.92-16.607h67.706c8.775,0,13.224-4,13.224-11.873V297.838h51.469a6.521,6.521,0,0,0,0-13.041H225.854c.083-3.7.321-6.733,1-8.522.332-.87.615-1.621,4.2-1.621l23.412-.024c14.663-.014,25.152-3.561,32.069-10.845.32-.338.623-.691.926-1.043h88.089v17.922a4.186,4.186,0,0,1-4.125,4.135H306.5a6.521,6.521,0,1,0,0,13.041h61.084c5.154,9.566,9.787,21.47,9.514,40.276A70.766,70.766,0,0,0,269.319,329.7a71.836,71.836,0,0,0-20.5,44.507Zm168.632,47.578c-20.384,0-37.576-14.687-41.736-34.513h83.471C358,407.071,340.812,421.761,320.428,421.761Zm49.14-47.554H261.916c3.2-29.485,27.854-52.494,57.7-52.494a57.86,57.86,0,0,1,55.49,41.464c.022.074.047.151.072.226a60.184,60.184,0,0,1,2.152,10.8ZM432.1,239.1a10.6,10.6,0,0,1-10.584,10.6H335.451V216.027H432.1Zm0-36.118H335.451V189.115H432.1Zm0-26.91H335.451V162.814a10.6,10.6,0,0,1,10.584-10.6h75.488a10.6,10.6,0,0,1,10.581,10.6Z" transform="translate(0)"/>
  </g>
</svg>
