
<svg id="Layer_1" data-name="Layer 1" xmlns="http://www.w3.org/2000/svg" viewBox="0 0 1080 1080"><title>digital ticket sales</title><rect x="390.41" y="316.57" width="199.06" height="333.79" style="fill:#2962ff"/><path d="M515.24,424.21c1.65,0,3,0,4.28,0A25.08,25.08,0,0,1,538.71,434c6.72,8.5,8,18,3.53,27.84-4.62,10.15-13,15.32-24.13,15.53-2.36.05-3.15.58-3.12,3.08.15,10,.13,19.93,0,29.9,0,2.24.69,2.78,2.84,2.78q118.85-.08,237.67,0c2,0,2.78-.38,2.75-2.6-.12-10.14,0-20.29-.06-30.43,0-.77-.1-1.54-.15-2.21-.32-.18-.47-.32-.62-.33q-1.18-.09-2.37-.12c-9.51-.23-17.09-4.19-22.21-12.19-5.53-8.64-5.94-17.87-1.15-26.91,4.91-9.25,12.94-14,23.45-14.1,2.35,0,3.16-.57,3.12-3.07-.15-10-.13-19.94,0-29.91,0-2.23-.68-2.78-2.84-2.78q-118.83.07-237.67,0c-2,0-2.78.38-2.75,2.6.12,10.14,0,20.29.06,30.43C515.06,422.25,515.16,423,515.24,424.21Z" style="fill:#fff"/><path d="M484.94,650.3c-8.88-3.92-14.22-10.1-13.84-20,.36-9.19,5.72-14.8,14.2-18.25H415.8c-6.42,0-8.5-2.07-8.5-8.47v-263c0-6.65,2-8.64,8.68-8.64,12.61,0,25.22.09,37.83-.07,3.93-.05,7.07,1,8.65,4.65,3,7,8.1,8.88,15.52,8.37,10.26-.71,20.6-.25,30.9-.13a5.2,5.2,0,0,0,5-2.65C521.76,330.39,519,332.1,533,332c10.55-.07,21.1,0,31.65,0,5.93,0,8.09,2.13,8.11,8.12q.08,17.44,0,34.91c0,5.06-2.53,8-6.54,7.86s-6.16-3-6.17-7.85c0-9.92,0-19.84,0-30-1.07-.1-1.87-.25-2.68-.25-9.09,0-18.19-.11-27.27.08A5.82,5.82,0,0,0,526,347c-8.48,12.18-4.92,10.37-20.49,10.47-13.1.08-26.19-.05-39.28.06-3.53,0-6.43-1-7.79-4.21-3.19-7.48-8.7-9.45-16.43-8.66-6.72.69-13.57.16-20.36.19a8.22,8.22,0,0,0-1.34.28v254.1H560.08c0-6.21-.06-12.24,0-18.27.06-4.4,2.73-7.11,6.65-6.94a5.84,5.84,0,0,1,5.9,5.75c.19,8.84.22,17.7,0,26.54-.11,3.88-2.85,5.78-7.37,5.79q-28.72,0-57.46,0H495.07c8.49,3.59,14,9.53,14,19s-5.48,15.59-15.32,19.16c25.06,0,48.9.23,72.74-.1,11.59-.15,19-8.4,19-20,0-15.88,0-31.76,0-47.64a19.8,19.8,0,0,1,.11-3.27A6.13,6.13,0,0,1,592,574a5.86,5.86,0,0,1,6,5.22,20,20,0,0,1,.2,3.63c0,15.39.06,30.79,0,46.19-.07,20.77-13.41,34-34.25,34H416c-20.76,0-34.14-13.35-34.14-34.07q0-144.21,0-288.43c0-20.51,13.41-34,33.87-34q74.37,0,148.76,0c20.28,0,33.67,13.33,33.79,33.68.07,11.4,0,22.79,0,34.19,0,.48,0,1,0,1.45-.23,4.33-2.6,7-6.27,7s-6.41-2.82-6.43-7.23c0-11.88,0-23.76,0-35.65a27.78,27.78,0,0,0-.61-6.11,18.62,18.62,0,0,0-17-14.5c-1-.07-1.94-.09-2.91-.09q-74.93,0-149.85,0c-10.07,0-17.44,5.09-19.75,13.87a33.23,33.23,0,0,0-.78,8.29q-.06,84.38,0,168.76,0,59.47,0,118.94c0,10.48,4.91,17.71,13.75,20.25a21.38,21.38,0,0,0,5.73.82Q449.51,650.35,484.94,650.3Zm11.39-19a6.19,6.19,0,0,0-6-6.41,6.28,6.28,0,0,0-6.65,6.12,6.45,6.45,0,0,0,6.37,6.48A6.31,6.31,0,0,0,496.33,631.34Z" style="fill:#fff;stroke:#000;stroke-miterlimit:10;stroke-width:3px"/><path d="M496.33,631.34a6.31,6.31,0,0,1-6.25,6.19,6.45,6.45,0,0,1-6.37-6.48,6.28,6.28,0,0,1,6.65-6.12A6.19,6.19,0,0,1,496.33,631.34Z" style="fill:#fff"/><path d="M586.11,535.6h-52c-3.46-13.08-11.72-21.41-24.94-24.87a27.05,27.05,0,0,0,0-3c-.77-6.69-.09-11.52,8.12-14.11s13.18-10,15.8-18.34c.73-2.32,1.58-3.28,4.18-3.25q22.89.2,45.79,0c2.35,0,3.3.74,4,3,3.39,10.69,10.6,17.74,21.25,21.08,2.21.7,2.86,1.58,2.76,3.74-.15,3.5,0,7,0,10.84C598.06,514.17,589.54,522.24,586.11,535.6Z" style="fill:#fff"/><path d="M512.15,424c-.09-1.21-.19-2-.19-2.77,0-10.27.07-20.55-.06-30.82,0-2.25.8-2.63,2.79-2.63q120.34.06,240.69,0c2.19,0,2.9.55,2.88,2.82-.12,10.09-.14,20.19,0,30.28,0,2.54-.78,3.08-3.16,3.11-10.64.15-18.78,4.92-23.75,14.29-4.85,9.15-4.43,18.49,1.17,27.25,5.18,8.1,12.86,12.11,22.49,12.34q1.2,0,2.4.12c.15,0,.3.16.63.34.05.67.15,1.45.15,2.23,0,10.28-.06,20.55.06,30.83,0,2.24-.79,2.63-2.79,2.63q-120.35-.06-240.69,0c-2.18,0-2.9-.55-2.87-2.82.11-10.09.13-20.19,0-30.28,0-2.53.76-3.07,3.15-3.12,11.33-.21,19.76-5.45,24.44-15.72,4.51-9.93,3.23-19.59-3.57-28.2A25.38,25.38,0,0,0,516.48,424C515.15,423.9,513.82,424,512.15,424ZM518,394c0,7.9,0,15.56.09,23.22,0,.51,1.21,1.34,2,1.47C536.26,421.35,548,434.77,548,450.8c.07,15.8-11.49,29.3-27.64,32.05-2,.34-2.44,1.06-2.38,2.88.11,3.93,0,7.86,0,11.79v10.19h168V493h6v14.6h60c0-7.8,0-15.38,0-23,0-1.82-1.25-1.56-2.35-1.76-16.13-2.84-27.7-16.29-27.65-32.1a32.64,32.64,0,0,1,27.93-32.07c1.84-.28,2.09-1.09,2.08-2.63,0-6.61,0-13.22,0-19.83,0-.76-.12-1.53-.18-2.21H692v14.56h-6V394Z" style="fill:#3499ff;stroke:#000;stroke-miterlimit:10"/><path d="M691.88,444.75h-5.6v-23.7h5.6Z" style="fill:#3499ff;stroke:#000;stroke-miterlimit:10"/><path d="M691.91,480.76h-5.67V457h5.67Z" style="fill:#3499ff;stroke:#000;stroke-miterlimit:10"/><line x1="514.51" y1="375.41" x2="514.51" y2="528.29" style="fill:none;stroke:#3499ff;stroke-miterlimit:10;stroke-width:6px"/><path d="M474.56,496.24c1.49,0,2.68-.05,3.87,0a22.67,22.67,0,0,1,17.35,8.82c6.07,7.68,7.21,16.3,3.18,25.16-4.17,9.17-11.7,13.85-21.81,14-2.13,0-2.85.52-2.81,2.78.13,9,.11,18,0,27,0,2,.62,2.51,2.57,2.51q107.41-.06,214.83,0c1.79,0,2.51-.35,2.49-2.35-.11-9.17-.05-18.34-.06-27.51,0-.69-.09-1.39-.13-2-.29-.16-.42-.29-.56-.3-.72-.06-1.43-.09-2.15-.11-8.59-.21-15.44-3.79-20.07-11-5-7.81-5.37-16.15-1-24.32,4.43-8.36,11.7-12.62,21.19-12.75,2.13,0,2.86-.51,2.82-2.77-.13-9-.11-18,0-27,0-2-.6-2.51-2.56-2.51q-107.42.06-214.83,0c-1.78,0-2.51.34-2.49,2.34.11,9.17.05,18.34.06,27.52C474.4,494.47,474.49,495.17,474.56,496.24Z" style="fill:#fff"/><path d="M474.56,496.24c-.07-1.07-.16-1.77-.16-2.46,0-9.18.05-18.35-.06-27.52,0-2,.71-2.34,2.49-2.34q107.42,0,214.83,0c2,0,2.59.49,2.56,2.51-.1,9-.12,18,0,27,0,2.26-.69,2.74-2.82,2.77-9.49.13-16.76,4.39-21.19,12.75-4.33,8.17-4,16.51,1,24.32,4.63,7.23,11.48,10.81,20.07,11,.72,0,1.43,0,2.15.11.14,0,.27.14.56.3,0,.6.13,1.3.13,2,0,9.17,0,18.34.06,27.51,0,2-.7,2.36-2.49,2.35q-107.41,0-214.83,0c-2,0-2.59-.49-2.57-2.51.11-9,.13-18,0-27,0-2.26.68-2.74,2.81-2.78,10.11-.19,17.64-4.87,21.81-14,4-8.86,2.89-17.48-3.18-25.16a22.67,22.67,0,0,0-17.35-8.82C477.24,496.19,476.05,496.24,474.56,496.24Zm5.26-26.78c0,7.05,0,13.89.08,20.72,0,.46,1.08,1.21,1.75,1.32,14.43,2.42,24.87,14.39,24.93,28.7.06,14.1-10.26,26.16-24.67,28.6-1.81.31-2.18,1-2.13,2.58.1,3.51,0,7,0,10.52V571h150V557.9h5.38v13h53.59c0-7,0-13.73,0-20.5,0-1.63-1.13-1.39-2.11-1.57-14.39-2.53-24.72-14.54-24.67-28.65a29.13,29.13,0,0,1,24.93-28.62c1.64-.26,1.87-1,1.86-2.35,0-5.9,0-11.8,0-17.7,0-.68-.11-1.36-.17-2H635.09v13H629.7v-13.1Z" style="fill:#3499ff;stroke:#000;stroke-miterlimit:10"/><path d="M635,514.8h-5V493.65h5Z" style="fill:#3499ff;stroke:#000;stroke-miterlimit:10"/><path d="M635,546.94H630V525.75H635Z" style="fill:#3499ff;stroke:#000;stroke-miterlimit:10"/><line x1="476.73" y1="434.74" x2="476.73" y2="587.63" style="fill:none;stroke:#3499ff;stroke-miterlimit:10;stroke-width:6px"/></svg>