<svg id="discount" xmlns="http://www.w3.org/2000/svg" width="398.324" height="398.325" viewBox="0 0 398.324 398.325">
  <path id="XMLID_2545_" d="M317.482,10l58.145,58.145a49.479,49.479,0,0,1,0,69.978l-58.145,58.145H30.239A20.238,20.238,0,0,1,10,176.029V30.238A20.238,20.238,0,0,1,30.239,10Z" transform="translate(-2.22 -2.22)" fill="#00c7ff"/>
  <path id="XMLID_2483_" d="M273.041,64.006H383.267l21.484,21.485V195.718L201.64,398.829a20.238,20.238,0,0,1-28.621,0L69.929,295.739a20.238,20.238,0,0,1,0-28.621Z" transform="translate(-14.21 -14.211)" fill="#3499ff"/>
  <circle id="XMLID_2590_" cx="15.559" cy="15.559" r="15.559" transform="translate(325.192 84.025)" fill="#fff"/>
  <circle id="XMLID_2480_" cx="15.562" cy="15.562" r="15.562" transform="translate(124.146 116.25)" fill="#fff"/>
  <circle id="XMLID_2476_" cx="15.562" cy="15.562" r="15.562" transform="translate(58.48 54.453)" fill="#fff"/>
  <path id="XMLID_1468_" d="M390.8,60.538l5.244-5.244a7.78,7.78,0,0,0-11-11L379.8,49.535l-5.241-5.241a7.78,7.78,0,0,0-5.5-2.279H360.5L320.763,2.279A7.78,7.78,0,0,0,315.262,0H28.019A28.049,28.049,0,0,0,0,28.018V173.809a28.05,28.05,0,0,0,28.018,28.018H95.794L50.218,247.406a28.019,28.019,0,0,0,0,39.623l103.09,103.09a28.019,28.019,0,0,0,39.623,0l77.211-77.21a7.78,7.78,0,1,0-11-11l-77.212,77.21a12.458,12.458,0,0,1-17.618,0L61.22,276.023a12.458,12.458,0,0,1,0-17.618L262.052,57.573H365.833l2.963,2.963L350.807,78.528a23.351,23.351,0,1,0,11,11l17.99-17.99,2.962,2.963V178.285L308.648,252.4a7.78,7.78,0,1,0,11,11l76.391-76.391a7.78,7.78,0,0,0,2.278-5.5V71.28a7.78,7.78,0,0,0-2.279-5.5ZM139.708,139.595a7.78,7.78,0,1,1,7.78-7.78A7.78,7.78,0,0,1,139.708,139.595ZM258.83,42.016a7.78,7.78,0,0,0-5.5,2.279l-90.473,90.472a23.391,23.391,0,1,0-20.193,20.193l-31.308,31.308H28.019a12.472,12.472,0,0,1-12.459-12.458V28.018A12.472,12.472,0,0,1,28.019,15.559h284.02l26.456,26.456Zm81.92,65.349a7.78,7.78,0,1,1,4.72-13.95,7.006,7.006,0,0,0,1.449,1.449,7.766,7.766,0,0,1-6.169,12.5Z"/>
  <path id="XMLID_1527_" d="M317.819,278.834a7.78,7.78,0,0,0,5.5-2.279l17.6-17.6a7.78,7.78,0,0,0-11-11l-12.1,12.1L279.31,221.542a7.78,7.78,0,0,0-11,11l44.009,44.008a7.78,7.78,0,0,0,5.5,2.279Z" transform="translate(-59.067 -48.683)" fill="#fff"/>
  <path id="XMLID_1528_" d="M389.634,194.843a7.78,7.78,0,0,0-11,0l-9.9,9.9-11-11,9.905-9.9a7.78,7.78,0,0,0-11-11l-9.905,9.9-11-11,9.9-9.9a7.78,7.78,0,0,0-11-11l-15.4,15.4a7.78,7.78,0,0,0,0,11l44.009,44.008a7.78,7.78,0,0,0,11,0l15.4-15.4a7.78,7.78,0,0,0,0-11Z" transform="translate(-70.371 -32.985)" fill="#fff"/>
  <path id="XMLID_1531_" d="M281.922,310.353a7.78,7.78,0,1,0,7.063-13.864l-58.312-29.706a7.78,7.78,0,0,0-10.463,10.463l29.706,58.311a7.78,7.78,0,0,0,13.864-7.062l-2.385-4.683,15.845-15.845Zm-27.954-1.118-9.024-17.721,17.722,9.028Z" transform="translate(-48.705 -59.046)" fill="#fff"/>
  <path id="XMLID_1532_" d="M192.532,380.894a7.78,7.78,0,0,0,11,11l11-11a23.339,23.339,0,0,0-31.61-34.286,7.744,7.744,0,0,0-.821.7l-.576.575a7.78,7.78,0,0,1-11-11l11-11a7.78,7.78,0,0,0-11-11l-11,11A23.338,23.338,0,1,0,192.512,358.9l.016-.017a7.78,7.78,0,1,1,11,11Z" transform="translate(-33.9 -69.407)" fill="#fff"/>
  <path id="XMLID_1533_" d="M153.706,64.27a7.78,7.78,0,0,0-10.6,2.95L92.928,156.1a7.78,7.78,0,1,0,13.549,7.649l50.179-88.886a7.78,7.78,0,0,0-2.95-10.6Z" transform="translate(-20.409 -14.046)"/>
  <path id="XMLID_1536_" d="M111.854,83.339a23.339,23.339,0,1,0-23.339,23.339,23.339,23.339,0,0,0,23.339-23.339Zm-31.124,0a7.78,7.78,0,1,1,7.78,7.78A7.78,7.78,0,0,1,80.73,83.339Z" transform="translate(-14.471 -13.322)"/>
  <path id="XMLID_1537_" d="M369.768,353.319a7.784,7.784,0,1,0,5.5,2.28A7.784,7.784,0,0,0,369.768,353.319Z" transform="translate(-80.371 -78.448)"/>
</svg>
