
<svg id="Layer_1" data-name="Layer 1" xmlns="http://www.w3.org/2000/svg" viewBox="0 0 1080 1080"><title>event promotions</title><path d="M597.61,436.47c0,.68-1.6,1.77-2.57,1.93-21.24,3.57-36.58,21.18-36.67,42.22-.09,20.75,15.08,38.48,36.29,42.08,2.65.45,3.19,1.4,3.12,3.79-.14,5.15,0,10.32,0,15.48v13.37H377.15V536.08h-7.92v19.17H290.41c0-10.24,0-20.2,0-30.15,0-2.4,1.65-2.06,3.1-2.31,21.16-3.74,36.36-21.39,36.3-42.15a42.86,42.86,0,0,0-36.68-42.1c-2.41-.37-2.74-1.43-2.73-3.45.07-8.68,0-17.36,0-26,0-1,.17-2,.24-2.9h78.69v19.12h7.92V406H597.72C597.72,416.36,597.77,426.42,597.61,436.47ZM376.85,472.69V441.57H369.5v31.12Zm0,47.27V488.78h-7.44V520Z" style="fill:#2962ff"/><path d="M599.77,445.6a33.34,33.34,0,0,0-25.51,13c-8.94,11.3-10.61,24-4.69,37,6.14,13.49,17.21,20.37,32.08,20.65,3.14.06,4.19.77,4.14,4.09-.19,13.25-.16,26.5,0,39.76,0,3-.91,3.7-3.78,3.69q-158-.09-316,0c-2.63,0-3.69-.51-3.66-3.46.16-13.48.07-27,.08-40.46,0-1,.14-2.05.2-2.93.43-.24.62-.43.83-.45q1.57-.12,3.15-.15c12.64-.31,22.72-5.58,29.52-16.21,7.35-11.5,7.9-23.76,1.53-35.78-6.52-12.3-17.2-18.56-31.17-18.75-3.13,0-4.2-.76-4.15-4.08.2-13.25.17-26.51,0-39.76,0-3,.89-3.71,3.77-3.7q158,.09,316,0c2.62,0,3.7.5,3.66,3.45-.16,13.49-.06,27-.08,40.47,0,1-.13,2-.24,3.63C603.27,445.59,601.52,445.51,599.77,445.6ZM377.26,406.2v19.27h-7.92V406.35H290.65c-.07.9-.24,1.9-.24,2.9,0,8.68,0,17.36,0,26,0,2,.32,3.08,2.73,3.45a42.86,42.86,0,0,1,36.68,42.1c.06,20.76-15.14,38.42-36.3,42.15-1.45.25-3.11-.09-3.1,2.31.07,10,0,19.91,0,30.15h78.82V536.28h7.92v19.27H597.74V542.17c0-5.16-.1-10.32,0-15.48.07-2.39-.47-3.34-3.12-3.79-21.21-3.6-36.38-21.33-36.29-42.08.09-21,15.43-38.65,36.67-42.21,1-.17,2.56-1.26,2.57-1.94.16-10.05.11-20.11.11-30.47Z" style="fill:none;stroke:#000;stroke-miterlimit:10;stroke-width:2px"/><path d="M369.5,472.89h7.35V441.77H369.5Z" style="fill:none;stroke:#000;stroke-miterlimit:10;stroke-width:2px"/><path d="M369.46,520.16h7.44V489h-7.44Z" style="fill:none;stroke:#000;stroke-miterlimit:10;stroke-width:2px"/><path d="M697.93,481.71c23,3.58,35.31,22.07,35.19,40.1-.12,18.27-13.11,36-35.19,39.61v3.38c0,20.72,0,41.44,0,62.16,0,9.11-6,16.33-14.61,17.9-10.53,1.92-20.76-6.14-20.82-16.88a10.23,10.23,0,0,0-4-8.47,179.8,179.8,0,0,0-94.61-43.3c-4.86-.69-9.79-1-15-1.46-.2,4.57-1.42,8.51-4.67,11.6s-7.26,4.2-12.09,4V594c0,21.6.09,43.21-.06,64.82a26.54,26.54,0,0,1-21.8,25.56c-16.7,2.75-31.28-9.55-31.37-26.69-.11-21.11,0-42.23,0-63.34v-3.85l-3-.2a13.84,13.84,0,0,1-13-10.68c-.5-2.24-1.4-2.87-3.61-3.18-26.74-3.78-46.56-26.08-47.63-53.4-1-26.1,17.47-50,43.28-55.95,2.3-.52,4.64-.9,7.23-1.4.18-.7.39-1.53.61-2.35a14.52,14.52,0,0,1,14-11.05q29-.07,58,0c6.86,0,11.11,3.65,14.37,12.45,8.78-1.07,17.83-1.71,26.71-3.33,31.2-5.69,58.9-19,83.34-39.19a7.81,7.81,0,0,0,3.16-6.68,17.69,17.69,0,0,1,34.54-5.2,25.09,25.09,0,0,1,.93,7.28c.07,20.23,0,40.45,0,60.68Zm-35.73-49a191.08,191.08,0,0,1-53.43,29.94,196.11,196.11,0,0,1-59.83,11.7v90.4c42.61,2.45,80.32,17,113.26,44.57Zm-123,88.58q0-26.47,0-52.95c0-4.57-1.44-6-6-6H478.5c-4.71,0-6.13,1.44-6.13,6.21q0,52.8,0,105.61c0,4.75,1.4,6.16,6.17,6.16q27.21,0,54.43,0c4.94,0,6.24-1.34,6.24-6.35Q539.23,547.64,539.22,521.3Zm148.66.55v-103c0-1.08,0-2.17,0-3.25A7.57,7.57,0,0,0,678,409c-4,1.23-6.19,4.53-6.19,9.64V625.52a23.44,23.44,0,0,0,.06,2.37,8,8,0,0,0,11.43,6.41c3.58-1.71,4.58-4.79,4.57-8.55Q687.84,573.81,687.88,521.85ZM462.14,566.48V476.63c-18.26,1.16-40.62,17.44-40.43,45.21S445.08,565.7,462.14,566.48Zm27.18,24a4,4,0,0,0-.31.83c0,22.59-.24,45.18.07,67.76.14,10.35,10.29,17.59,20.28,15.25a16.45,16.45,0,0,0,12.7-15.84c.08-22,0-44,0-66a14.11,14.11,0,0,0-.29-2Zm208.81-98.34V551c14.06-2,24.81-14.75,24.93-29.3A29.52,29.52,0,0,0,698.13,492.14Z" style="fill:#fff;stroke:#000;stroke-miterlimit:10;stroke-width:2px"/><path d="M662.2,432.72V609.33c-32.94-27.53-70.65-42.12-113.26-44.57v-90.4a196.11,196.11,0,0,0,59.83-11.7A191.08,191.08,0,0,0,662.2,432.72Z" style="fill:#2962ff"/><path d="M539.22,521.3q0,26.34,0,52.66c0,5-1.3,6.35-6.24,6.35q-27.22,0-54.43,0c-4.77,0-6.17-1.41-6.17-6.16q0-52.8,0-105.61c0-4.77,1.42-6.21,6.13-6.21h54.72c4.55,0,6,1.45,6,6Q539.23,494.83,539.22,521.3ZM505.3,482.44c-3.84,0-7.68-.05-11.53,0-3.25.06-5.18,1.85-5.29,4.73a5,5,0,0,0,5.21,5.26q11.67.17,23.34,0c3.36-.05,5.16-2.13,5-5.27-.11-3-1.93-4.66-5.25-4.72C513,482.38,509.14,482.43,505.3,482.44Zm0,32.6c3.75,0,7.49,0,11.23,0s5.57-1.82,5.55-5-1.94-5-5.64-5Q505.22,505,494,505c-3.43,0-5.46,1.91-5.52,4.86s2.21,5.11,5.6,5.15C497.82,515.08,501.56,515,505.3,515Zm-.11,22.57c3.84,0,7.68,0,11.52,0,3.5-.05,5.33-1.78,5.36-4.9s-1.79-5-5.22-5.08q-11.52-.14-23,0c-3.36,0-5.39,2.09-5.34,5s2.22,4.89,5.49,4.94C497.7,537.65,501.44,537.61,505.19,537.61Zm.29,22.61c3.74,0,7.49.07,11.23,0,3.54-.08,5.33-1.79,5.36-4.9s-1.73-5-5.23-5.08c-7.67-.12-15.36-.12-23,0-3.44,0-5.39,2.08-5.33,5s2.17,4.86,5.49,4.93C497.8,560.28,501.64,560.22,505.48,560.22Z" style="fill:#fff"/><path d="M687.88,521.85q0,51.95,0,103.9c0,3.76-1,6.84-4.57,8.55a8,8,0,0,1-11.43-6.41,23.44,23.44,0,0,1-.06-2.37V418.6c0-5.11,2.14-8.41,6.19-9.64a7.57,7.57,0,0,1,9.8,6.62c.09,1.08,0,2.17,0,3.25Z" style="fill:#3499ff"/><path d="M462.14,566.48c-17.06-.78-40.24-16.77-40.43-44.64s22.17-44.05,40.43-45.21Z" style="fill:#2962ff"/><path d="M489.32,590.48H521.8a14.11,14.11,0,0,1,.29,2c0,22,0,44,0,66a16.45,16.45,0,0,1-12.7,15.84c-10,2.34-20.14-4.9-20.28-15.25-.31-22.58-.09-45.17-.07-67.76A4,4,0,0,1,489.32,590.48Z" style="fill:#3499ff"/><path d="M698.13,492.14a29.52,29.52,0,0,1,24.93,29.57c-.12,14.55-10.87,27.26-24.93,29.3Z" style="fill:#3499ff"/><path d="M505.3,482.44c3.84,0,7.68-.06,11.52,0,3.32.06,5.14,1.76,5.25,4.72.12,3.14-1.68,5.22-5,5.27q-11.67.17-23.34,0a5,5,0,0,1-5.21-5.26c.11-2.88,2-4.67,5.29-4.73C497.62,482.39,501.46,482.44,505.3,482.44Z" style="fill:#3499ff"/><path d="M505.3,515c-3.74,0-7.48,0-11.23,0-3.39,0-5.65-2.17-5.6-5.15S490.56,505,494,505q11.22-.08,22.45,0c3.7,0,5.62,1.78,5.64,5s-1.89,5-5.55,5S509.05,515,505.3,515Z" style="fill:#3499ff"/><path d="M505.19,537.61c-3.75,0-7.49,0-11.23,0-3.27-.05-5.43-2.05-5.49-4.94s2-5,5.34-5q11.52-.12,23,0c3.43,0,5.26,2,5.22,5.08s-1.86,4.85-5.36,4.9C512.87,537.65,509,537.61,505.19,537.61Z" style="fill:#3499ff"/><path d="M505.48,560.22c-3.84,0-7.68.06-11.51,0-3.32-.07-5.44-2.05-5.49-4.93s1.89-5,5.33-5c7.67-.12,15.36-.12,23,0,3.5.06,5.26,2,5.23,5.08s-1.82,4.82-5.36,4.9C513,560.29,509.22,560.22,505.48,560.22Z" style="fill:#3499ff"/></svg>