<svg version="1.0" xmlns="http://www.w3.org/2000/svg" width="300px" height="300px" preserveAspectRatio="xMidYMid meet" viewBox="0 0 2481.000000 2481.000000" class="rounded-3xl p-10 shadow-xl transition-shadow duration-200 hover:shadow-2xl"><g transform="translate(0.000000,2481.000000) scale(0.100000,-0.100000)" fill="#000000" stroke="none"><path d="M11960 23804 c-30 -2 -136 -8 -235 -14 -1133 -67 -2292 -317 -3354 -722 -2562 -978 -4691 -2844 -5999 -5258 -1166 -2155 -1605 -4642 -1251 -7095 300 -2079 1179 -4045 2534 -5669 1820 -2180 4394 -3614 7180 -4000 l165 -23 0 3621 0 3621 -78 29 c-1012 375 -1872 1142 -2361 2106 -235 461 -381 947 -448 1480 -26 208 -25 782 0 990 89 714 328 1359 717 1935 282 416 651 798 1062 1098 341 248 772 469 1188 607 957 318 2024 284 2980 -95 151 -60 483 -226 632 -317 721 -437 1323 -1103 1678 -1853 208 -439 332 -872 397 -1385 13 -105 17 -214 17 -490 0 -313 -2 -375 -22 -525 -112 -837 -418 -1558 -937 -2205 -188 -235 -518 -554 -769 -744 -109 -82 -338 -234 -455 -300 -237 -135 -595 -294 -818 -363 l-93 -28 0 -3601 0 -3601 28 4 c732 88 1342 210 1977 398 2096 619 4001 1856 5434 3530 1172 1369 2002 2986 2426 4727 181 744 283 1482 315 2273 14 348 13 9197 -1 9360 -73 853 -516 1597 -1234 2071 -327 216 -688 353 -1102 419 -137 22 -499 31 -649 15 -838 -85 -1567 -526 -2029 -1225 -85 -128 -194 -334 -246 -462 -32 -81 -33 -82 -55 -68 -87 56 -500 299 -644 377 -1445 787 -2980 1236 -4670 1364 -191 14 -1132 28 -1280 18z"></path></g></svg>