<svg xmlns="http://www.w3.org/2000/svg" width="438.571" height="551.524" viewBox="0 0 438.571 551.524">
  <g id="Group_19777" data-name="Group 19777" transform="translate(-65.84 -346.764)">
    <path id="Path_92" data-name="Path 92" d="M340.658,384.337s-.74,35.545,42.894,47.374,45.114,50.294,34.759,72.483c0,0,19.229,4.435,24.409,36.974s-53.254,116.857-166.406,83.573-124.987,1.48-172.321-32.539-10.355-78.4,9.615-79.133c0,0-14.795-16.32-6.66-42.919s24.668-29.042,37.922-42.007,23.462-34.886,23.462-34.886Z" transform="translate(61.375 152.861)" fill="#312a45"/>
    <path id="Path_93" data-name="Path 93" d="M376.32,454.039s41.054,4.774,63.776,17.871,36.411,48.87,36.411,48.87S386.016,589.695,266.736,585.1s-200.9-96.3-200.9-96.3,15.307-40.648,48.271-55.757c21.313-9.772,70.431-9.346,70.431-9.346Z" transform="translate(0 312.971)" fill="#2860f2"/>
    <path id="Path_94" data-name="Path 94" d="M111.43,380.859s-1.52,16.716,8.611,30.39,14.688,13.168,16.209,27.861-2.752,21.779,2.423,35.96" transform="translate(185.149 138.711)" fill="none" stroke="#9e6c19" stroke-miterlimit="10" strokeWidth="0.756"/>
    <g id="Group_26" data-name="Group 26" transform="translate(146.431 346.764)">
      <ellipse id="Ellipse_15" data-name="Ellipse 15" cx="120.552" cy="123.206" rx="120.552" ry="123.206" transform="translate(0 236.015) rotate(-78.207)" fill="#312a45"/>
      <path id="Path_95" data-name="Path 95" d="M126.4,404.174c6.32,13.223,3.786,27.6-5.661,32.119S98.515,433.743,92.2,420.52s-3.786-27.6,5.661-32.113S120.081,390.95,126.4,404.174Z" transform="translate(-53.339 -182.899)" fill="#7c4e37"/>
      <path id="Path_96" data-name="Path 96" d="M178.91,525.709c29.737.629,85.4-30.574,85.4-30.574s24.152-25.321,29.364-41.083c-65.22-12.529-141.261-21.951-204.414-30.36C90.628,479.429,122.6,524.523,178.91,525.709Z" transform="translate(-51.149 -33.791)" fill="#95b1ff"/>
      <path id="Path_97" data-name="Path 97" d="M157.577,361.123s10.892,61.718,78.3,88.21a22.18,22.18,0,0,1,13.963,21.161L244.17,724.36s-31.51,39.29-86.994,27.709-48.353-52.96-48.353-52.96l16.944-91.961s-33.685-23.943-24.115-68.2c0,0-7-53.026-9.25-67.354C86.923,436.612,153.806,397.185,157.577,361.123Z" transform="translate(-39.664 -288.347)" fill="#9b6446"/>
      <path id="Path_98" data-name="Path 98" d="M107.586,423.755c26.285,8.408,69.209,3.629,93.112-16.33,3.507-2.924,8.865-.254,8.307,4.278-1.389,11.267-6.706,26.837-24.668,33.963-29.838,11.845-47.415,55.7-87.785,37.967Z" transform="translate(-21.483 -104.953)" fill="#7c4e37"/>
      <path id="Path_99" data-name="Path 99" d="M129.551,412c7.182-21.075,24-33.33,33.933-25.063,13.142,10.948-8.348,69.011-31.8,70.37S129.551,412,129.551,412Z" transform="translate(76.673 -193.905)" fill="#9b6446"/>
      <path id="Path_100" data-name="Path 100" d="M109.513,380.328c15.671-3.441,31.4.36,39.3,4.587" transform="translate(31.248 -215.657)" fill="none" stroke="#312a45" stroke-linecap="round" stroke-miterlimit="10" strokeWidth="2.107"/>
      <path id="Path_101" data-name="Path 101" d="M131.982,381.749s-23.5-9.321-37.182,2.5" transform="translate(-28.61 -218.629)" fill="none" stroke="#312a45" stroke-linecap="round" stroke-miterlimit="10" strokeWidth="2.107"/>
      <path id="Path_102" data-name="Path 102" d="M151.52,413.549a15.165,15.165,0,1,1-11.749-17.942A15.165,15.165,0,0,1,151.52,413.549Z" transform="translate(80.046 -149.37)" fill="#fff"/>
      <path id="Path_103" data-name="Path 103" d="M113.2,395.082c-.147,6.918-3.629,12.453-7.78,12.367s-7.395-5.768-7.248-12.686,3.629-12.448,7.78-12.362S113.351,388.168,113.2,395.082Z" transform="translate(-14.896 -201.784)" fill="#2a2a2a"/>
      <path id="Path_104" data-name="Path 104" d="M126.8,395.247c-.147,6.913-3.629,12.448-7.78,12.362s-7.395-5.768-7.248-12.681,3.629-12.453,7.78-12.367S126.948,388.329,126.8,395.247Z" transform="translate(40.423 -201.133)" fill="#2a2a2a"/>
      <path id="Path_105" data-name="Path 105" d="M116.468,382.908c1.257,10.365-8.784,32.489-15.018,44.658a4.393,4.393,0,0,0,4.617,6.336l20.953-3.355" transform="translate(-3.558 -199.717)" fill="none" stroke="#612525" stroke-miterlimit="10" strokeWidth="0.966"/>
      <path id="Path_106" data-name="Path 106" d="M103.158,405.151a41.553,41.553,0,0,0,38.723-10.309" transform="translate(5.393 -151.164)" fill="none" stroke="#612525" stroke-miterlimit="10" strokeWidth="0.966"/>
    </g>
    <path id="Path_107" data-name="Path 107" d="M192.9,370.878s-3.629-18.49-28.819-18.12-30.74,22.93-30.74,22.93-19.97-7.765-34.389,5.545-5.18,32.169-5.18,32.169-17.38,1.48-18.49,28.844,28.707,34.024,28.707,34.024-5.408,13.553,7.537,26.746,35.5,12.524,35.5,12.524Z" transform="translate(38.308 24.365)" fill="#312a45"/>
  </g>
</svg>
