
<svg id="Layer_1" data-name="Layer 1" xmlns="http://www.w3.org/2000/svg" viewBox="0 0 1080 1080"><title>physical ticket sales</title><path d="M380.19,500.58c2.1-.67,3.75-1.28,5.45-1.73a33.49,33.49,0,0,1,28.42,4.57c12,8.07,17.53,19.7,15.86,34-1.72,14.8-10.22,24.79-24.36,29.63-3,1-3.78,2-2.72,5.19,4.27,12.63,8.32,25.33,12.24,38.07.89,2.86,2,3.26,4.76,2.38Q571.08,564,722.4,515.53c2.52-.81,3.38-1.63,2.44-4.44-4.3-12.87-8.36-25.81-12.52-38.72-.31-1-.75-1.92-1.08-2.75-.49-.1-.73-.22-.94-.17-1,.25-2,.52-3.06.82-12.2,3.59-23.47,1.65-33.26-6.44-10.57-8.75-14.86-20.32-12.46-33.79C664,416.26,672.29,407,685.6,402.5c3-1,3.79-2,2.72-5.18-4.26-12.63-8.31-25.33-12.24-38.07-.88-2.86-2-3.27-4.75-2.38Q520.09,405.53,368.77,454c-2.51.8-3.39,1.62-2.45,4.43,4.3,12.87,8.36,25.81,12.52,38.72C379.16,498.16,379.6,499.1,380.19,500.58Z" style="fill:#3499ff;stroke:#000;stroke-miterlimit:10"/><path d="M375.49,460.49l211.09-67.78,5.93,18.45,7.59-2.44-5.88-18.3,75.34-24.19c.35.83.81,1.74,1.12,2.7,2.69,8.3,5.31,16.63,8.05,24.92.64,1.93.64,3-1.55,4.15A43.08,43.08,0,0,0,655,449.58c6.32,19.9,26.3,32.13,47.72,29.2,1.46-.2,2.95-1,3.67,1.26,3,9.55,6.09,19.07,9.24,28.88l-75.47,24.23-5.89-18.35-7.59,2.43,5.93,18.45L421.39,603.5c-1.4-4.36-2.76-8.58-4.11-12.81-1.59-4.94-3.08-9.92-4.81-14.81-.8-2.27-.57-3.34,1.83-4.59,19.2-10,28.28-31.6,21.81-51.44-6.55-20.13-26.66-32.27-48.09-29.15-1,.14-2.83-.42-3-1.07C381.72,480.06,378.68,470.41,375.49,460.49Zm239-6.31L605,424.38l-7,2.26,9.57,29.8Zm14.57,45.26-9.58-29.86-7.13,2.29L622,501.72Z" style="fill:#fff;stroke:#000;stroke-miterlimit:10;stroke-width:2px"/><path d="M614.52,454.18l-7,2.26-9.57-29.8,7-2.26Z" style="fill:#3499ff;stroke:#000;stroke-miterlimit:10"/><path d="M629.09,499.44,622,501.72l-9.59-29.85,7.13-2.29Z" style="fill:#3499ff;stroke:#000;stroke-miterlimit:10"/><path d="M534.67,666.3H390.42c-6.1,0-7.48-1.34-7.48-7.32V507.18c0-5.81,1.42-7.21,7.28-7.21H679.05c5.67,0,7.16,1.45,7.16,7q0,76.2,0,152.42c0,5.38-1.55,6.89-7,6.89ZM393,510V617.69c21.8,4.12,34.5,17,38.62,38.59H676.19V548.56C656,545.32,641,531.4,637.56,510Zm254.68,0c1.33,15,16,28,28.47,28.38V509.93ZM421.6,656.29C419.23,641.13,405.72,627.92,393,628v28.34Z" style="fill:#fff;stroke:#000;stroke-miterlimit:10;stroke-width:2px"/><path d="M393,510H637.56c3.48,21.44,18.41,35.36,38.63,38.6V656.28H431.6c-4.12-21.57-16.82-34.47-38.62-38.59ZM598.17,583a63.6,63.6,0,0,0-127.19.26c.13,35,28.82,63.59,63.73,63.49S598.32,617.88,598.17,583Zm51.39,66.18c4.5,0,9,0,13.5,0,3.86,0,5.94-1.87,5.9-5s-2.18-4.8-6.06-4.81q-13.33,0-26.68,0c-4,0-6.34,1.89-6.29,5s2.35,4.8,6.13,4.84C640.56,649.23,645.06,649.19,649.56,649.19ZM424.64,531.8c4.61,0,9.21,0,13.81,0,3.46,0,5.68-2.07,5.62-5s-2.15-4.76-5.5-4.79q-14-.12-27.94,0c-3.51,0-5.69,2.09-5.62,5s2.28,4.76,5.82,4.79C415.43,531.83,420,531.8,424.64,531.8Z" style="fill:#2962ff"/><path d="M647.66,509.93h28.47v28.38C663.64,538,649,524.93,647.66,509.93Z" style="fill:#2962ff"/><path d="M421.6,656.29H393V628C405.72,627.92,419.23,641.13,421.6,656.29Z" style="fill:#2962ff"/><path d="M598.17,583c.15,34.87-28.49,63.64-63.46,63.75s-63.6-28.47-63.73-63.49A63.6,63.6,0,0,1,598.17,583Zm-63.65,53.86a53.77,53.77,0,1,0-53.71-53.79A53.74,53.74,0,0,0,534.52,636.87Z" style="fill:#fff;stroke:#000;stroke-miterlimit:10;stroke-width:2px"/><path d="M649.56,649.19c-4.5,0-9,0-13.5,0-3.78,0-6.08-1.9-6.13-4.84s2.3-5,6.29-5q13.34,0,26.68,0c3.88,0,6,1.75,6.06,4.81s-2,4.94-5.9,5C658.56,649.24,654.06,649.19,649.56,649.19Z" style="fill:#fff;stroke:#000;stroke-miterlimit:10;stroke-width:2px"/><path d="M424.64,531.8c-4.6,0-9.21,0-13.81,0-3.54,0-5.75-1.9-5.82-4.79s2.11-5,5.62-5q14-.1,27.94,0c3.35,0,5.44,2,5.5,4.79s-2.16,5-5.62,5C433.85,531.84,429.25,531.8,424.64,531.8Z" style="fill:#fff;stroke:#000;stroke-miterlimit:10;stroke-width:2px"/><path d="M534.52,636.87a53.77,53.77,0,1,1,53.82-53.68A53.74,53.74,0,0,1,534.52,636.87Zm-4.79-29.24c-4.72,0-9.2-.18-13.66.1a7.24,7.24,0,0,0-4.85,2.06,5.3,5.3,0,0,0-.32,4.85,6.44,6.44,0,0,0,4.52,2.59c4.65.34,9.34.12,14.2.12.4,4.15-1.13,9.65,5,9.62s4.36-5.65,5-9.29c12.42-2.47,18.89-8.84,19.35-18.87a19.23,19.23,0,0,0-3.62-12.41c-3.85-5.36-9.33-7.77-15.71-8.31V558.75h3.55c3.56,0,7.12.1,10.68,0s5.78-2.85,5-6.08c-.71-2.77-2.78-3.74-5.46-3.74H539.59c-.54-4.1,1.12-9.44-4.91-9.52-6.36-.09-4.49,5.49-5.12,9.27-1.79.35-3.55.57-5.24,1-9,2.51-14.7,10.9-14.05,20.54a19.56,19.56,0,0,0,16.84,17.67c.94.13,2.48,1.12,2.51,1.76C529.81,595.48,529.73,601.33,529.73,607.63Z" style="fill:#fff"/><path d="M529.73,607.63c0-6.3.08-12.15-.11-18,0-.64-1.57-1.63-2.51-1.76a19.56,19.56,0,0,1-16.84-17.67c-.65-9.64,5.06-18,14.05-20.54,1.69-.47,3.45-.69,5.24-1,.63-3.78-1.24-9.36,5.12-9.27,6,.08,4.37,5.42,4.91,9.52h13.74c2.68,0,4.75,1,5.46,3.74.82,3.23-1.32,5.92-5,6.08s-7.12,0-10.68,0H539.6v19.34c6.38.54,11.86,2.95,15.71,8.31a19.23,19.23,0,0,1,3.62,12.41c-.46,10-6.93,16.4-19.35,18.87-.6,3.64,1.2,9.26-5,9.29s-4.6-5.47-5-9.62c-4.86,0-9.55.22-14.2-.12a6.44,6.44,0,0,1-4.52-2.59,5.3,5.3,0,0,1,.32-4.85,7.24,7.24,0,0,1,4.85-2.06C520.53,607.45,525,607.63,529.73,607.63Zm-.22-29.53V559a9.49,9.49,0,0,0-9.62,9C519.57,573.23,523.53,577.53,529.51,578.1Zm10.06,29.16a9.48,9.48,0,0,0,9.7-9.58,9.25,9.25,0,0,0-9.7-9.24Z" style="fill:#2962ff;stroke:#000;stroke-miterlimit:10"/><path d="M529.51,578.1c-6-.57-9.94-4.87-9.62-10.14a9.49,9.49,0,0,1,9.62-9Z" style="fill:#fff"/><path d="M539.57,607.26V588.44a9.25,9.25,0,0,1,9.7,9.24A9.48,9.48,0,0,1,539.57,607.26Z" style="fill:#fff"/></svg>