<svg xmlns="http://www.w3.org/2000/svg" width="362.406" height="398.93" viewBox="0 0 362.406 398.93">
  <path id="ic_share_24px" d="M288.339,269.838a55.394,55.394,0,0,0-37.284,14.647L115.423,205.542a62.271,62.271,0,0,0,1.712-13.316,62.271,62.271,0,0,0-1.712-13.316l134.109-78.183a56.94,56.94,0,1,0-18.262-41.659,62.271,62.271,0,0,0,1.712,13.316L98.874,150.566a57.068,57.068,0,1,0,0,83.319l135.441,79.134a53.666,53.666,0,0,0-1.522,12.365,55.546,55.546,0,1,0,55.546-55.546Z" transform="translate(7 8)" fill="#3399f8" stroke="#151515" strokeWidth="20"/>
</svg>
