<svg xmlns="http://www.w3.org/2000/svg" width="362.364" height="362.365" viewBox="0 0 362.364 362.365">
  <g id="movie-tickets" transform="translate(298 1433.002)">
    <path id="Path_24" data-name="Path 24" d="M368.246,181.024,265.576,374.285,24,199.142l34.945-59.216A36.236,36.236,0,1,0,97.169,78.354L132.709,24l56.5,37.663,9.655,6.44Z" transform="translate(-315.961 -1450.961)" fill="#00c7ff"/>
    <path id="Path_25" data-name="Path 25" d="M338.049,320.63a36.236,36.236,0,0,0,36.236,36.236V423.3H24V356.867a36.236,36.236,0,1,0,0-72.473V224H374.285v60.394A36.236,36.236,0,0,0,338.049,320.63Z" transform="translate(-315.961 -1499.976)" fill="#3499ff"/>
    <path id="Path_26" data-name="Path 26" d="M104,272H279.142v78.512H104Z" transform="translate(-335.567 -1511.74)" fill="#c6e3ff"/>
    <path id="Path_27" data-name="Path 27" d="M372.324,166.984h-13.27L134.1,17.014a6.039,6.039,0,0,0-8.408,1.72L90.146,73.088a6.039,6.039,0,0,0,1.914,8.464,30.2,30.2,0,1,1-31.839,51.318,6.039,6.039,0,0,0-8.439,2.029L32.848,166.984H22.039A6.039,6.039,0,0,0,16,173.024v60.394a6.039,6.039,0,0,0,6.039,6.039,30.2,30.2,0,1,1,0,60.394A6.039,6.039,0,0,0,16,305.891v66.433a6.039,6.039,0,0,0,6.039,6.039H372.324a6.039,6.039,0,0,0,6.039-6.039V305.891a6.039,6.039,0,0,0-6.039-6.039,30.2,30.2,0,0,1,0-60.394,6.039,6.039,0,0,0,6.039-6.039V173.024A6.039,6.039,0,0,0,372.324,166.984ZM59.25,146.014a42.283,42.283,0,0,0,44.177-71.161l29.04-44.408L183.7,64.6l-9.658,14.486a6.039,6.039,0,1,0,10.05,6.7L193.746,71.3l143.533,95.688h-81.4l-55.456-35.293a6.04,6.04,0,0,0-6.485,10.191l39.442,25.1H46.876Zm307.035,81.795a42.276,42.276,0,0,0,0,83.691v54.785H305.891V348.166a6.039,6.039,0,0,0-12.079,0v18.118H28.079V311.5a42.28,42.28,0,0,0,0-83.691V179.063H293.812v18.118a6.039,6.039,0,1,0,12.079,0V179.063h60.394Z" transform="translate(-314 -1449)"/>
    <path id="Path_28" data-name="Path 28" d="M390.039,280A6.039,6.039,0,0,0,384,286.039v18.118a6.039,6.039,0,0,0,12.079,0V286.039A6.039,6.039,0,0,0,390.039,280Z" transform="translate(-404.188 -1513.7)"/>
    <path id="Path_29" data-name="Path 29" d="M390.039,336A6.039,6.039,0,0,0,384,342.039v18.118a6.039,6.039,0,1,0,12.079,0V342.039A6.039,6.039,0,0,0,390.039,336Z" transform="translate(-404.188 -1527.425)"/>
    <path id="Path_30" data-name="Path 30" d="M390.039,392A6.039,6.039,0,0,0,384,398.039v18.118a6.039,6.039,0,0,0,12.079,0V398.039A6.039,6.039,0,0,0,390.039,392Z" transform="translate(-404.188 -1541.149)"/>
    <path id="Path_31" data-name="Path 31" d="M277.182,264H102.039A6.039,6.039,0,0,0,96,270.039v78.512a6.039,6.039,0,0,0,6.039,6.039H277.182a6.039,6.039,0,0,0,6.039-6.039V270.039A6.039,6.039,0,0,0,277.182,264Zm-6.039,78.512H108.079V276.079H271.142Z" transform="translate(-333.606 -1509.779)"/>
    <path id="Path_32" data-name="Path 32" d="M277.182,400H102.039a6.039,6.039,0,1,0,0,12.079H277.182a6.039,6.039,0,1,0,0-12.079Z" transform="translate(-333.606 -1543.109)"/>
    <path id="Path_33" data-name="Path 33" d="M277.182,432H102.039a6.039,6.039,0,1,0,0,12.079H277.182a6.039,6.039,0,1,0,0-12.079Z" transform="translate(-333.606 -1550.952)"/>
    <path id="Path_34" data-name="Path 34" d="M213.468,121.014a6.039,6.039,0,0,0-8.375,1.674l-12.079,18.118a6.039,6.039,0,1,0,10.05,6.7l12.079-18.118a6.039,6.039,0,0,0-1.674-8.375Z" transform="translate(-357.133 -1474.488)"/>
    <path id="Path_35" data-name="Path 35" d="M181.468,169.014a6.039,6.039,0,0,0-8.375,1.674l-12.079,18.118a6.039,6.039,0,1,0,10.05,6.7l12.079-18.118a6.039,6.039,0,0,0-1.674-8.375Z" transform="translate(-349.291 -1486.252)"/>
    <path id="Path_36" data-name="Path 36" d="M266.792,147.135l66.433,42.276a6.04,6.04,0,0,0,6.485-10.191l-66.433-42.276a6.04,6.04,0,1,0-6.485,10.191Z" transform="translate(-374.777 -1478.409)"/>
  </g>
</svg>
